<svg width="148.000000" height="105.000000" viewBox="0 0 148 105" fill="none" xmlns="http://www.w3.org/2000/svg" xmlns:xlink="http://www.w3.org/1999/xlink">
	<desc>
			Created with Pixso.
	</desc>
	<defs>
		<clipPath id="clip1_179">
			<rect id="logo" width="148.000000" height="105.000000" fill="white" fill-opacity="0"/>
		</clipPath>
	</defs>
	<rect id="logo" width="148.000000" height="105.000000" fill="#FFFFFF" fill-opacity="0"/>
	<g clip-path="url(#clip1_179)">
		<path id="Vector" d="M135.439 2.78943L135.439 97.6316L11.3851 97.6316L11.3851 2.78943L135.439 2.78943Z" stroke="#000000" stroke-opacity="1.000000" stroke-width="6.000000"/>
		<path id="Vector" d="M25.2085 34.6359C22.8672 34.6359 20.754 34.171 18.869 33.2412C16.9838 32.3114 15.3571 31.0562 13.9889 29.4753C12.6206 27.8638 11.5564 26.066 10.7963 24.0824C10.0666 22.0677 9.70169 20.0067 9.70169 17.899C9.70169 15.6985 10.097 13.6063 10.8875 11.6228C11.678 9.60815 12.7726 7.82593 14.1713 6.27625C15.5699 4.69556 17.2118 3.45581 19.097 2.55701C21.0125 1.6272 23.08 1.16223 25.2997 1.16223C27.6105 1.16223 29.7085 1.6427 31.5936 2.60352C33.5092 3.56433 35.1358 4.85059 36.4737 6.46228C37.8419 8.07397 38.8909 9.87158 39.6207 11.8552C40.3808 13.8389 40.7608 15.869 40.7608 17.9456C40.7608 20.1462 40.3655 22.2537 39.575 24.2683C38.8148 26.252 37.7355 28.0342 36.3369 29.6149C34.9382 31.1646 33.2811 32.3888 31.3656 33.2877C29.4804 34.1865 27.4281 34.6359 25.2085 34.6359ZM14.9011 17.899C14.9011 19.4489 15.1442 20.952 15.6308 22.4087C16.1172 23.8655 16.8014 25.1672 17.6831 26.314C18.5953 27.4298 19.6899 28.3131 20.9669 28.964C22.244 29.6149 23.673 29.9403 25.2541 29.9403C26.896 29.9403 28.3554 29.5994 29.6325 28.9175C30.9095 28.2356 31.9736 27.3213 32.825 26.1746C33.7067 24.9967 34.3757 23.6949 34.8318 22.2693C35.2879 20.8125 35.5159 19.3558 35.5159 17.899C35.5159 16.3494 35.2726 14.8616 34.7862 13.4359C34.3301 11.9791 33.646 10.693 32.7338 9.57715C31.8217 8.4303 30.7271 7.53149 29.45 6.88062C28.2034 6.22974 26.8048 5.9043 25.2541 5.9043C23.6122 5.9043 22.1527 6.24524 20.8757 6.92712C19.5987 7.60901 18.5192 8.52332 17.6375 9.67017C16.7558 10.8169 16.0716 12.1031 15.5852 13.5289C15.1291 14.9546 14.9011 16.4114 14.9011 17.899ZM87.2333 1.39465L87.2333 34.4034L82.0796 34.4034L82.0796 19.8517L65.7519 19.8517L65.7519 34.4034L60.6438 34.4034L60.6438 1.39465L65.7519 1.39465L65.7519 15.2026L82.0796 15.2026L82.0796 1.39465L87.2333 1.39465ZM122.587 34.6359C120.246 34.6359 118.133 34.171 116.247 33.2412C114.363 32.3114 112.735 31.0562 111.367 29.4753C109.999 27.8638 108.935 26.066 108.175 24.0824C107.445 22.0677 107.08 20.0067 107.08 17.899C107.08 15.6985 107.476 13.6063 108.266 11.6228C109.057 9.60815 110.151 7.82593 111.55 6.27625C112.949 4.69556 114.591 3.45581 116.475 2.55701C118.391 1.6272 120.459 1.16223 122.678 1.16223C124.989 1.16223 127.087 1.6427 128.972 2.60352C130.888 3.56433 132.515 4.85059 133.852 6.46228C135.22 8.07397 136.269 9.87158 136.999 11.8552C137.76 13.8389 138.139 15.869 138.139 17.9456C138.139 20.1462 137.744 22.2537 136.953 24.2683C136.194 26.252 135.114 28.0342 133.715 29.6149C132.317 31.1646 130.659 32.3888 128.744 33.2877C126.859 34.1865 124.807 34.6359 122.587 34.6359ZM112.279 17.899C112.279 19.4489 112.523 20.952 113.009 22.4087C113.496 23.8655 114.18 25.1672 115.061 26.314C115.974 27.4298 117.068 28.3131 118.345 28.964C119.622 29.6149 121.052 29.9403 122.632 29.9403C124.274 29.9403 125.734 29.5994 127.011 28.9175C128.288 28.2356 129.352 27.3213 130.203 26.1746C131.085 24.9967 131.754 23.6949 132.21 22.2693C132.666 20.8125 132.894 19.3558 132.894 17.899C132.894 16.3494 132.652 14.8616 132.165 13.4359C131.708 11.9791 131.024 10.693 130.112 9.57715C129.2 8.4303 128.105 7.53149 126.828 6.88062C125.582 6.22974 124.183 5.9043 122.632 5.9043C120.991 5.9043 119.531 6.24524 118.254 6.92712C116.977 7.60901 115.898 8.52332 115.016 9.67017C114.135 10.8169 113.451 12.1031 112.964 13.5289C112.507 14.9546 112.279 16.4114 112.279 17.899ZM35.7535 38.5411L24.99 38.5411L24.99 66.9473L19.8363 66.9473L19.8363 38.5411L9.02722 38.5411L9.02722 33.9386L35.7535 33.9386L35.7535 38.5411ZM67.324 62.3447L67.324 66.9473L45.1129 66.9473L45.1129 33.9386L66.9135 33.9386L66.9135 38.5411L50.221 38.5411L50.221 47.9324L64.6787 47.9324L64.6787 52.2561L50.221 52.2561L50.221 62.3447L67.324 62.3447ZM77.656 66.9473L77.656 33.9386L100.415 33.9386L100.415 38.4946L82.7641 38.4946L82.7641 47.7465L92.2506 47.7465C95.8385 47.7465 98.5294 48.6143 100.324 50.35C102.117 52.0546 103.015 54.3173 103.015 57.1377C103.015 59.0283 102.619 60.7175 101.829 62.2052C101.068 63.662 99.9132 64.8242 98.3625 65.692C96.8419 66.5289 94.9111 66.9473 92.5698 66.9473L77.656 66.9473ZM82.7641 62.3912L91.8857 62.3912C93.2844 62.3912 94.4094 62.1278 95.2607 61.6008C96.1425 61.0739 96.7662 60.4076 97.1311 59.6017C97.5261 58.7649 97.724 57.8971 97.724 56.9982C97.724 56.0994 97.5562 55.2625 97.2223 54.4877C96.8876 53.7129 96.2791 53.0929 95.3975 52.6281C94.5462 52.1322 93.3452 51.8842 91.7945 51.8842L82.7641 51.8842L82.7641 62.3912ZM135.036 62.3447L135.036 66.9473L112.825 66.9473L112.825 33.9386L134.626 33.9386L134.626 38.5411L117.933 38.5411L117.933 47.9324L132.391 47.9324L132.391 52.2561L117.933 52.2561L117.933 62.3447L135.036 62.3447ZM35.6399 66.4824L35.6399 99.4912L30.4862 99.4912L30.4862 84.9395L14.1585 84.9395L14.1585 99.4912L9.05038 99.4912L9.05038 66.4824L14.1585 66.4824L14.1585 80.2903L30.4862 80.2903L30.4862 66.4824L35.6399 66.4824ZM53.2065 66.4824L58.0409 66.4824L70.6288 99.4912L65.247 99.4912L61.8264 90.5183L49.3298 90.5183L45.9548 99.4912L40.5274 99.4912L53.2065 66.4824ZM60.823 86.6595L55.6237 72.2008L50.242 86.6595L60.823 86.6595ZM70.4375 105.814L70.4375 94.8885L71.9882 94.8885C72.8395 94.8885 73.5692 94.5474 74.1774 93.8657C74.8159 93.1842 75.3479 92.0991 75.7737 90.6113C76.2297 89.1237 76.5794 87.171 76.8226 84.7534C77.0963 82.3049 77.2939 79.314 77.4155 75.7806L77.6436 66.4824L98.4866 66.4824L98.4866 94.8885L102.591 94.8885L102.591 105.814L98.0761 105.814L98.0761 99.4912L74.9527 99.4912L74.9527 105.814L70.4375 105.814ZM78.4645 94.8885L93.3328 94.8885L93.3328 71.0851L82.3868 71.0851L82.25 76.478C82.1588 80.0424 81.9764 83.0642 81.7027 85.5438C81.4291 87.9923 81.0337 89.976 80.5169 91.4946C80 93.0131 79.3158 94.1447 78.4645 94.8885ZM122.406 99.7236C120.065 99.7236 117.952 99.2587 116.067 98.3289C114.181 97.399 112.555 96.1438 111.187 94.5631C109.818 92.9514 108.754 91.1537 107.994 89.1702C107.264 87.1555 106.899 85.0945 106.899 82.9868C106.899 80.7861 107.294 78.6941 108.085 76.7104C108.876 74.6958 109.971 72.9137 111.369 71.364C112.767 69.7833 114.409 68.5436 116.295 67.6447C118.21 66.7148 120.278 66.25 122.497 66.25C124.808 66.25 126.906 66.7303 128.791 67.6912C130.707 68.652 132.333 69.9382 133.671 71.5499C135.04 73.1616 136.089 74.9594 136.818 76.9429C137.578 78.9265 137.959 80.9567 137.959 83.0333C137.959 85.2339 137.564 87.3414 136.773 89.3561C136.013 91.3397 134.933 93.1218 133.535 94.7026C132.136 96.2526 130.479 97.4762 128.563 98.3754C126.678 99.2745 124.626 99.7236 122.406 99.7236ZM112.099 82.9868C112.099 84.5365 112.342 86.0397 112.829 87.4965C113.315 88.9532 113.999 90.255 114.881 91.4017C115.793 92.5175 116.888 93.4009 118.165 94.0518C119.442 94.7026 120.871 95.0281 122.452 95.0281C124.094 95.0281 125.553 94.6868 126.83 94.0052C128.107 93.3236 129.172 92.4089 130.023 91.2622C130.905 90.0845 131.573 88.7827 132.03 87.3569C132.486 85.9003 132.714 84.4436 132.714 82.9868C132.714 81.437 132.47 79.9493 131.984 78.5237C131.528 77.0669 130.844 75.7806 129.932 74.6649C129.019 73.5181 127.925 72.6193 126.648 71.9684C125.401 71.3175 124.002 70.9921 122.452 70.9921C120.81 70.9921 119.35 71.333 118.073 72.0149C116.796 72.6967 115.717 73.6111 114.835 74.7578C113.953 75.9045 113.269 77.1909 112.783 78.6166C112.327 80.0424 112.099 81.499 112.099 82.9868Z" fill="#000000" fill-opacity="1.000000" fill-rule="nonzero"/>
	</g>
</svg>
